<svg xmlns="http://www.w3.org/2000/svg" xmlns:xlink="http://www.w3.org/1999/xlink" version="1.1" x="0px" y="0px" viewBox="0 0 100 125" style="enable-background:new 0 0 100 100;" xml:space="preserve"><g><path d="M95.5,38.4L52.2,20.6C51.6,20.3,50.9,20,50,20c-0.9,0-1.6,0.3-2.2,0.6L4.5,38.4c-1.2,0.5-1.8,1.1-2,1.7   c0.1,0.6,0.8,1.2,2,1.7l43.4,17.8c0.6,0.2,1.3,0.6,2.2,0.6s1.6-0.3,2.2-0.6l22.4-9.2l-24.4-9.2c-0.9-0.3-1.4-1.4-1-2.3   c0.3-0.9,1.4-1.4,2.3-1c0,0,28.5,10.8,29.5,11.2c2.8,1,3.6,1.3,3.7,7.5c-1.2,0.8-2,2.1-2,3.6c0,1.1,0.4,2.1,1.1,2.8   c-0.8,2.7-2,8.7,0.2,15.4c0,0,3,2.4,9.7,1.5c0,0-4-7.2-4.1-16.3c1-0.8,1.7-2,1.7-3.4c0-1.5-0.8-2.9-2-3.6c-0.1-5.5-0.8-8.4-4-10.4   l10.3-4.2c1.2-0.5,1.8-1.1,2-1.7C97.4,39.5,96.7,38.8,95.5,38.4L95.5,38.4z"/><path d="M50,63.8c-1,0-1.9-0.4-2.6-0.7L21.3,52.4v20.1C33.8,72.9,50,78.5,50,78.5s16.2-5.6,28.7-6.1V52.4L52.6,63.2   C51.9,63.4,51,63.8,50,63.8L50,63.8z"/></g></svg>