
<svg xmlns="http://www.w3.org/2000/svg" version="1.1" viewBox="-5.0 -10.0 110.0 135.0">
 <g>
  <path d="m87.5 51.582c0.18359-0.49609 0.32422-1.0273 0.43359-1.6211 2.3008-0.625 6.4609-2.3906 6.0664-6.9766-0.070312-0.84766-0.27734-1.5625-0.60547-2.1445 4.5312-11.289-1.5938-18.781-2.918-20.219-0.085937-4.4102-1.9375-7.918-5.1094-9.6562-2.6289-1.4414-5.75-1.3984-8.4727 0.085937-5.2227-5.9648-11.902-6.2148-15.48-5.8086-5.1719 0.58203-10.191 3.1836-11.922 6.125-3.4297 0.75781-5.7891 2.2695-7.0195 4.4922-1.4219 2.5703-0.93359 5.3516-0.37891 7.0625-6.8398 5.5938-4.8281 13.699-2.8359 18.316-0.28906 0.55859-0.47266 1.2148-0.54297 2.0117-0.27734 3.2773 1.8711 5.7812 5.8984 6.9375 0.09375 0.48438 0.21094 0.96094 0.375 1.4023 1.7578 4.7031 6.7266 7.5117 14.766 8.3633l-0.84766 2.2969-6.4414 1.2305c-5.0938 0.96875-9.1328 5.0508-10.051 10.16l-3.5703 19.84c-2.5938-0.36328-4.6211-3.2227-4.6211-6.6875v-16.18c5.3477-0.40234 9.582-4.8711 9.582-10.32 0-5.7148-4.6484-10.363-10.359-10.363-5.7148 0-10.359 4.6484-10.359 10.363 0 5.4492 4.2305 9.918 9.5781 10.32v16.18c0 4.4414 2.8594 8.0664 6.4297 8.2695 0.11719 0.066406 0.24219 0.11328 0.38281 0.11328h53.766c0.23047 0 0.44922-0.10156 0.60156-0.28125 0.14844-0.17578 0.21094-0.41016 0.16797-0.64062l-3.7109-20.617c-0.91797-5.1094-4.9609-9.1914-10.047-10.16l-0.15625-0.03125s-0.003906-0.003906-0.007812-0.003906l-6.2617-1.1992-0.85938-2.3242c7.918-0.87891 12.812-3.6758 14.543-8.3398zm-62.867 8.7031c0-4.8516 3.9453-8.8008 8.7969-8.8008 4.8516 0 8.7969 3.9453 8.7969 8.8008 0 4.8516-3.9453 8.7969-8.7969 8.7969-4.8516 0-8.7969-3.9453-8.7969-8.7969zm63.477-12.008 0.10938-1.6875c0-0.003906 0.003906-0.007813 0.003906-0.011719l0.28516-4.3867 0.09375-1.4141c1.1992-0.29688 2.5859-0.35938 3.293 0.59766 0.29688 0.39844 0.48047 0.98047 0.54297 1.7305 0.26172 3.0547-2.2539 4.5-4.3281 5.168zm-44.629-24.469c0.27344-0.21094 0.37891-0.57422 0.25781-0.89844-0.51562-1.3594-1.1836-3.9805 0.09375-6.2969 1.0391-1.8828 3.168-3.1602 6.3203-3.793 0.23828-0.046874 0.4375-0.20312 0.54688-0.41797 1.1328-2.2812 5.5117-5.0078 10.883-5.6094 3.3633-0.37891 9.7148-0.13281 14.531 5.7578 0.25 0.30469 0.69141 0.375 1.0234 0.16406 2.3672-1.5078 5.1602-1.6484 7.4727-0.38281 2.7344 1.5 4.3008 4.6367 4.3008 8.6055 0 0.21484 0.089844 0.42188 0.24609 0.56641 0.074219 0.070313 7.1406 6.9102 3.0508 18.07-0.003906 0-0.003906-0.003907-0.007812-0.003907-0.011719-0.007812-0.027344-0.011718-0.039063-0.019531-0.15625-0.09375-0.32031-0.17188-0.49219-0.23828-0.058594-0.023438-0.11719-0.042969-0.17578-0.0625-0.14063-0.046875-0.28516-0.085938-0.4375-0.12109-0.0625-0.011718-0.12109-0.027344-0.1875-0.039062-0.21094-0.035156-0.42578-0.0625-0.65234-0.066406h-0.046875c-0.21484-0.003907-0.4375 0.003906-0.66797 0.023437-0.078125 0.007813-0.16016 0.019531-0.24219 0.027344-0.17969 0.023437-0.36328 0.050781-0.55078 0.085937l0.16406-2.4727c0.019531-0.27734-0.11328-0.54688-0.34766-0.70312-0.23438-0.15625-0.53125-0.17188-0.78125-0.046875-3.4609 1.7305-9.0195 1.5078-12.504-2.3125-0.26172-0.28516-0.69141-0.33594-1.0117-0.125-2.8125 1.8828-6.0781 1.832-9.6992-0.14453-0.25391-0.14062-0.56641-0.125-0.80469 0.035156-3.6367 2.4141-6.9258 2.6445-11 0.76953-0.20312-0.09375-0.42969-0.09375-0.63281-0.007812-0.20312 0.085937-0.35938 0.25391-0.42969 0.46484-0.46484 1.3516-3.6094 3.2656-6.8555 2.4336-0.24219-0.0625-0.49609-0.003906-0.6875 0.15234-0.19141 0.15625-0.29688 0.39844-0.28516 0.64453l0.082031 1.5586c-1.6484-0.29688-2.7656 0-3.5195 0.5-1.7305-4.3711-3.0977-11.406 3.0859-16.105zm-3.2188 19.57c0.0625-0.70312 0.23047-1.2617 0.5-1.6602 0.011719-0.019531 0.023437-0.039062 0.035156-0.058594 0.68359-0.9375 2.0234-0.90234 3.1992-0.63672l0.39453 7.4531c-1.9961-0.69922-4.375-2.1484-4.1289-5.0977zm6.1797 7.6562c-0.17969-0.48438-0.30859-1.0117-0.39062-1.5977 0-0.003906 0-0.007812-0.003906-0.011719-0.046875-0.26172-0.074219-0.53906-0.089844-0.84375l-0.050781-0.97656c0-0.035157 0-0.070313-0.003906-0.10547l-0.37891-7.168v-0.011719l-0.082032-1.5625c3.1758 0.37891 6.1523-1.1992 7.3047-2.8789 4.1289 1.7109 7.7031 1.418 11.445-0.92969 3.7344 1.9102 7.2891 1.9766 10.348 0.20312 3.6133 3.5391 8.8828 4.0273 12.688 2.6953l-0.14844 2.2734v0.007812l-0.41406 6.3242c-0.003906 0.027344-0.007812 0.050781-0.007812 0.078125 0 0.003906 0.003906 0.007812 0.003906 0.011719l-0.13281 2.0312c-0.015625 0.22266-0.039063 0.44922-0.058594 0.67578v0.007812c-0.09375 0.66797-0.23828 1.25-0.42969 1.7812-1.5977 4.3008-6.25 6.7344-14.227 7.4297-1.7148 0.15234-3.5859 0.22656-5.5703 0.20703-1.9023 0.011719-3.6992-0.046875-5.3398-0.18359-8.1016-0.67188-12.828-3.1094-14.449-7.457zm31.91 13.664-3.918 4.0078c-0.1875 0.19141-0.26562 0.46875-0.19922 0.73047 0.0625 0.26172 0.25781 0.47266 0.51172 0.55859l3.6797 1.2266-3.9688 18.691-3.3047-23.191c0.019531-0.011718 0.035156-0.027344 0.058594-0.039062 0.070312-0.042969 0.14453-0.085938 0.21484-0.12891 0.058594-0.035157 0.10938-0.074219 0.16406-0.11328 0.12109-0.082031 0.23828-0.16406 0.35156-0.25391 0.027344-0.023438 0.058594-0.042969 0.085938-0.0625 0.015625-0.011719 0.03125-0.027344 0.046875-0.039062 0.015625-0.011719 0.027343-0.023438 0.039062-0.035157 0.10156-0.082031 0.19922-0.16797 0.29297-0.25391 0.054688-0.050781 0.10547-0.10156 0.15625-0.15234 0.058594-0.058593 0.11328-0.11719 0.16797-0.17578 0.027343-0.03125 0.050781-0.058594 0.078125-0.089844l0.011718-0.011718c0.042969-0.050782 0.089844-0.10156 0.13281-0.15234 0.089844-0.10938 0.17188-0.22656 0.25391-0.33984 0.027344-0.039062 0.054688-0.074219 0.082031-0.11328 0.015626-0.019531 0.027344-0.042969 0.039063-0.066407 0.015625-0.023437 0.027344-0.046874 0.039063-0.066406 0.070312-0.11328 0.13672-0.23047 0.19922-0.35156 0.019532-0.039063 0.035156-0.078125 0.054688-0.11719 0.050781-0.10938 0.10156-0.21484 0.14844-0.32812l4.5859 0.87891zm-20.285 4.0078-3.8867-3.9766 4.7656-0.91016c0.046876 0.11719 0.10156 0.23047 0.15625 0.34375 0.015626 0.03125 0.027344 0.0625 0.042969 0.09375 0.0625 0.12109 0.12891 0.23828 0.20312 0.35547 0.011719 0.019531 0.023438 0.042969 0.035156 0.0625 0.015626 0.023438 0.027344 0.042969 0.042969 0.066407 0.023438 0.035156 0.050781 0.070312 0.074219 0.10547 0.082031 0.11719 0.16406 0.23438 0.25781 0.34766 0.042969 0.050782 0.085938 0.10156 0.12891 0.14844 0.003906 0.003906 0.007812 0.011719 0.011719 0.015625 0.027343 0.027344 0.050781 0.058594 0.074218 0.089844 0.054688 0.058593 0.10938 0.11719 0.16797 0.17578 0.050781 0.050781 0.10547 0.10156 0.16016 0.15234 0.09375 0.085937 0.1875 0.16797 0.28516 0.25 0.015624 0.011718 0.027343 0.027344 0.042968 0.039062 0.015625 0.011719 0.027344 0.027344 0.042969 0.039063 0.027344 0.023437 0.058594 0.042969 0.085937 0.066406 0.10938 0.085937 0.22656 0.16797 0.34375 0.25 0.054688 0.039063 0.10938 0.078125 0.16406 0.11328 0.066406 0.042969 0.14062 0.085938 0.21094 0.12891 0.019532 0.011719 0.039063 0.027344 0.058594 0.039063l-3.2578 22.816-4.1914-18.312 3.6641-1.2227c0.25391-0.085937 0.44922-0.29688 0.51172-0.55859s-0.011719-0.53906-0.19922-0.73047zm4.9531-1.2969c0.015625 0.007813 0.035157 0.015625 0.050781 0.023438 0.28906 0.10547 0.58203 0.1875 0.87891 0.26562 0.066406 0.015625 0.12891 0.042969 0.19531 0.058593 0.32031 0.078126 0.64844 0.12891 0.97266 0.17188 0.039062 0.003906 0.082031 0.015624 0.12109 0.023437 0.30078 0.035156 0.60547 0.046875 0.91016 0.054687 0.066406 0 0.13281 0.011719 0.19922 0.011719h0.007813c0.28516 0 0.57031-0.023437 0.85547-0.050781 0.082031-0.007812 0.16406-0.003906 0.24609-0.015625 0.25781-0.03125 0.51172-0.082031 0.76562-0.13281 0.10938-0.023437 0.22266-0.03125 0.33203-0.058593 0.26172-0.0625 0.51953-0.14844 0.77734-0.23438 0.097657-0.03125 0.19531-0.054688 0.29297-0.089844 0.015625-0.007812 0.03125-0.015625 0.050781-0.023438l3.7266 26.188h-14.121l3.7344-26.195zm9.3555-4.3477c-0.023438 0.066406-0.046875 0.12891-0.070312 0.19141-0.027344 0.070313-0.058594 0.13672-0.089844 0.20312-0.027344 0.0625-0.058594 0.12109-0.089844 0.17969-0.035156 0.066406-0.074219 0.12891-0.11328 0.19531-0.035157 0.054688-0.070313 0.11328-0.10938 0.16797-0.042969 0.0625-0.09375 0.125-0.14062 0.18359-0.042969 0.050781-0.082031 0.10547-0.125 0.15625-0.054688 0.0625-0.11328 0.12109-0.17188 0.17969-0.046875 0.046875-0.09375 0.097657-0.14453 0.14062-0.066406 0.058594-0.13672 0.11719-0.20703 0.17578-0.050781 0.042968-0.097656 0.085937-0.15234 0.125-0.082032 0.0625-0.17188 0.125-0.26563 0.18359-0.050781 0.035157-0.09375 0.066407-0.14453 0.10156-0.14453 0.09375-0.29688 0.18359-0.45703 0.26953-0.03125 0.015625-0.0625 0.035156-0.09375 0.046875-0.039062 0.015625-0.074219 0.035156-0.10547 0.054688-2.2422 1.1211-4.9102 1.1094-7.1953-0.054688-0.03125-0.011719-0.066407-0.03125-0.10938-0.054688-0.16016-0.085937-0.30859-0.17578-0.45312-0.26953-0.050781-0.03125-0.09375-0.066406-0.14453-0.097656-0.089844-0.0625-0.17969-0.12109-0.26172-0.18359-0.050781-0.039062-0.10156-0.082031-0.14844-0.125-0.070312-0.058593-0.14062-0.11719-0.20703-0.17578-0.050781-0.046875-0.09375-0.09375-0.14062-0.14062-0.058594-0.058594-0.11719-0.11719-0.17188-0.17969-0.042969-0.050782-0.082031-0.10156-0.125-0.15234-0.046875-0.0625-0.097656-0.125-0.14062-0.1875-0.039063-0.054688-0.070313-0.10938-0.10547-0.16406-0.039062-0.0625-0.078125-0.12891-0.11328-0.19531-0.03125-0.058594-0.058594-0.11719-0.089844-0.17969-0.03125-0.066406-0.0625-0.13281-0.089843-0.20312-0.023438-0.0625-0.050782-0.12891-0.070313-0.19531-0.011719-0.035156-0.023437-0.074219-0.035156-0.10938l1.0547-2.8594c1.5273 0.10938 3.1719 0.15625 4.8789 0.14453 1.8008 0.015625 3.5117-0.039063 5.1133-0.16406l1.0625 2.8789c-0.011719 0.039062-0.023438 0.074219-0.035156 0.11328zm-28.438 10.844c0.78125-4.3438 4.1367-7.832 8.4102-8.8086l3.7266 3.8086-3.1523 1.0508c-0.38281 0.12891-0.60547 0.52344-0.51562 0.91406l5.2031 22.73h-5.1758v-18.332c0-0.42969-0.34766-0.78125-0.78125-0.78125s-0.78125 0.35156-0.78125 0.78125v18.332h-5.1562c-0.10547-0.054687-0.22266-0.09375-0.35156-0.09375h-4.957l3.5273-19.605zm44.805 0 3.5469 19.695h-10.477v-18.332c0-0.42969-0.34766-0.78125-0.78125-0.78125s-0.78125 0.35156-0.78125 0.78125v18.332h-4.9805l4.832-22.742c0.082032-0.39062-0.14062-0.77734-0.51953-0.90234l-3.1562-1.0508 3.7617-3.8438c4.3438 0.92969 7.7695 4.4531 8.5625 8.8477z"/>
  <path d="m55.188 39.543c-0.89844 0-1.6289 1.1797-1.6289 2.6328s0.72656 2.6328 1.6289 2.6328c0.89844 0 1.6289-1.1797 1.6289-2.6328s-0.72656-2.6328-1.6289-2.6328z"/>
  <path d="m77.523 44.805c0.89844 0 1.6289-1.1797 1.6289-2.6328s-0.72656-2.6328-1.6289-2.6328c-0.89844 0-1.6289 1.1797-1.6289 2.6328s0.72656 2.6328 1.6289 2.6328z"/>
  <path d="m66.348 51.488c0.92578 0 1.8047-0.28125 2.5547-0.75781 0.023437-0.007813 0.039062-0.023438 0.058594-0.035157 0.85156-0.55859 1.5273-1.3789 1.8906-2.3789 0.14453-0.40625-0.066406-0.85156-0.46875-1-0.41016-0.14453-0.85547 0.0625-1 0.47266-0.46094 1.2773-1.6797 2.1367-3.0312 2.1367-1.3555 0-2.5742-0.85938-3.0312-2.1367-0.14453-0.40625-0.59375-0.61719-1-0.47266-0.40625 0.14453-0.61719 0.59375-0.47266 1 0.68359 1.8984 2.4922 3.1719 4.5039 3.1719z"/>
  <path d="m38.434 60.285c0-2.7578-2.2461-5.0039-5.0039-5.0039-2.7578 0-5.0039 2.2461-5.0039 5.0039 0 2.7578 2.2461 5.0039 5.0039 5.0039 2.7578 0 5.0039-2.2461 5.0039-5.0039zm-8.4453 0c0-1.8984 1.543-3.4414 3.4414-3.4414 1.8984 0 3.4414 1.543 3.4414 3.4414 0 1.8984-1.543 3.4414-3.4414 3.4414-1.8984 0-3.4414-1.543-3.4414-3.4414z"/>
  <path d="m17.004 18.57h-9.2266c-1.5742 0-2.8516 1.2812-2.8516 2.8516 0 1.5742 1.2812 2.8516 2.8516 2.8516h0.78516v4.5078h-1.9219c-0.42969 0-0.78125 0.35156-0.78125 0.78125v34.023c0 0.42969 0.35156 0.78125 0.78125 0.78125h1.1172l2.1406 5.1914c0.12109 0.29297 0.40625 0.48438 0.72266 0.48438h0.98828v19.371c0 0.42969 0.35156 0.78125 0.78125 0.78125s0.78125-0.35156 0.78125-0.78125v-19.371h0.99219c0.31641 0 0.60156-0.19141 0.72266-0.48438l2.1406-5.1914h1.1133c0.42969 0 0.78125-0.35156 0.78125-0.78125v-34.023c0-0.42969-0.35156-0.78125-0.78125-0.78125h-1.9219v-4.5078h0.78516c1.5742 0 2.8516-1.2812 2.8516-2.8516 0-1.5742-1.2812-2.8516-2.8516-2.8516zm-3.3672 49.91h-2.4961l-1.6953-4.1094h5.8906l-1.6953 4.1094zm3.7188-33.547h-3.1953c-0.42969 0-0.78125 0.35156-0.78125 0.78125 0 0.42969 0.35156 0.78125 0.78125 0.78125h3.1953v4.3594h-3.1953c-0.42969 0-0.78125 0.35156-0.78125 0.78125 0 0.42969 0.35156 0.78125 0.78125 0.78125h3.1953v4.3594h-3.1953c-0.42969 0-0.78125 0.35156-0.78125 0.78125 0 0.42969 0.35156 0.78125 0.78125 0.78125h3.1953v4.3594h-3.1953c-0.42969 0-0.78125 0.35156-0.78125 0.78125 0 0.42969 0.35156 0.78125 0.78125 0.78125h3.1953v8.543h-0.85156-0.003906-8.2227-0.003906-0.85547v-32.461h9.9375zm-2.7031-6.1523h-4.5312v-4.5078h4.5312zm2.3477-6.0703h-1.5625-0.003906-6.0938-0.003906-1.5625c-0.71094 0-1.2891-0.57813-1.2891-1.2891s0.57812-1.2891 1.2891-1.2891h9.2266c0.71094 0 1.2891 0.57813 1.2891 1.2891s-0.57812 1.2891-1.2891 1.2891z"/>
 </g>

</svg>