<svg xmlns="http://www.w3.org/2000/svg" version="1.1" viewBox="-5.0 -10.0 110.0 135.0">
 <path d="m10.973 90h78c0.26562 0 0.51953-0.10547 0.70703-0.29297s0.29297-0.44531 0.29297-0.71094c-0.007812-2.4531-0.25391-6.8945-0.69531-8.8516-0.875-3.9023-3.4648-10.695-10.941-12.305l-17.016-4.7109v-6.2734c5.9023-3.8477 9.8477-10.637 9.8945-18.375 0.81641-2.9844 3.3125-10.816 5.6172-13.234 0.18359-0.19141 0.28125-0.44922 0.27344-0.71484-0.042969-1.9297-7.9688-10.027-16.207-13.141-7.2227-2.7344-13.645-1.4727-18.605 3.6367-1.668-0.074219-7.0117 0.050781-10.703 4.1562-3.6055 4.0117-4.4648 10.492-2.5586 19.27 0.035156 7.7109 3.9492 14.488 9.8203 18.348v6.3164l-17.188 4.7031c-7.5312 1.625-10.125 8.418-11 12.32-0.4375 1.957-0.68359 6.3984-0.69531 8.8516 0 0.26562 0.10547 0.51953 0.29297 0.71094 0.19141 0.19141 0.44531 0.29688 0.71094 0.29688zm22.09-69.465c2.8281-3.1602 6.9883-3.5156 8.7188-3.5156 0.49219 0 0.78906 0.027344 0.80078 0.03125 0.31641 0.035157 0.62891-0.082031 0.84375-0.3125 3.7148-4.0078 8.2695-5.4961 13.539-4.4219 8.6875 1.7734 16.586 9.875 17.977 12.062-1.9609 2.4766-3.75 7.4336-4.7812 10.66-1.793-4.2383-6.2812-11.105-16.168-9.2188-6.0898 1.1641-9.0312 0.27344-10.43-0.67969-1.1602-0.78906-1.3398-1.6797-1.3438-1.6992-0.042969-0.29297-0.21094-0.55078-0.46094-0.70703s-0.55469-0.19141-0.83594-0.10156c-0.34766 0.11328-7.4609 2.5312-10.672 11.016-0.66797-5.8711 0.27344-10.273 2.8125-13.113zm-2.0273 17.887c1.4648-8.9492 7.3711-12.488 9.6328-13.531 0.30078 0.55078 0.80469 1.2148 1.6562 1.8203 2.4766 1.7656 6.5273 2.125 12.047 1.0703 11.582-2.2188 14.543 9.3125 14.844 10.648-0.046875 10.906-8.5898 19.766-19.09 19.766-10.504 0.007813-19.051-8.8594-19.09-19.773zm19.09 21.781c3.2969 0 6.418-0.78906 9.1992-2.1914v5.4883c-2.1055 2.4531-5.5312 3.918-9.2656 3.918-3.6875 0-7.0938-1.4375-9.2031-3.8477v-5.5977c2.7969 1.4219 5.9414 2.2305 9.2695 2.2305zm-17.215 13.84c1.8828 0 3.4102 1.5312 3.4102 3.4102s-1.5312 3.4102-3.4102 3.4102c-1.8789 0.003907-3.4102-1.5273-3.4102-3.4102 0-1.8789 1.5312-3.4102 3.4102-3.4102zm-20.293 6.5391c0.76953-3.4375 3.0234-9.4102 9.5234-10.816l9.7812-2.6758v5.0508c-2.5117 0.46484-4.4219 2.668-4.4219 5.3125 0 2.9844 2.4258 5.4102 5.4102 5.4102s5.4102-2.4258 5.4102-5.4102c0-2.6367-1.8984-4.8359-4.3984-5.3125v-5.6016l5.5547-1.5195c2.4961 2.7539 6.3906 4.3945 10.578 4.3945 4.1992 0 8.0898-1.6445 10.586-4.4023l5.3555 1.4805v5.2656c-3.4141 0.48828-6.0469 3.4219-6.0469 6.9688v4.2891c0 0.55078 0.44922 1 1 1h2.4531c0.55078 0 1-0.44922 1-1s-0.44922-1-1-1h-1.4531v-3.2852c0-2.7812 2.2656-5.0469 5.0469-5.0469s5.0469 2.2656 5.0469 5.0469v3.2891h-1.4492c-0.55078 0-1 0.44922-1 1s0.44922 1 1 1h2.4492c0.55078 0 1-0.44922 1-1v-4.2891c0-3.5469-2.6328-6.4805-6.0469-6.9688v-4.7109l9.8633 2.7305c6.4453 1.3906 8.6992 7.3633 9.4688 10.801 0.32422 1.4492 0.57031 4.8164 0.62891 7.418h-75.969c0.058594-2.6016 0.30469-5.9727 0.62891-7.418z"/>
</svg>