<svg xmlns="http://www.w3.org/2000/svg" xmlns:xlink="http://www.w3.org/1999/xlink" version="1.1" x="0px" y="0px" viewBox="0 0 96 120" style="enable-background:new 0 0 96 96;" xml:space="preserve"><path d="M33.204,39.255c9.062,0,16.434-7.372,16.434-16.434c0-9.062-7.372-16.434-16.434-16.434s-16.434,7.372-16.434,16.434  C16.769,31.883,24.142,39.255,33.204,39.255z M33.204,8.724c7.773,0,14.097,6.324,14.097,14.097c0,7.773-6.324,14.097-14.097,14.097  c-7.773,0-14.097-6.324-14.097-14.097C19.107,15.048,25.431,8.724,33.204,8.724z M86.023,64.776h-5.908v-5.908  c0-0.645-0.523-1.169-1.169-1.169H70.52c-0.645,0-1.169,0.523-1.169,1.169v5.908h-5.908c-0.645,0-1.169,0.523-1.169,1.169v8.427  c0,0.645,0.523,1.169,1.169,1.169h5.908v5.908c0,0.645,0.523,1.169,1.169,1.169h8.427c0.645,0,1.169-0.523,1.169-1.169v-5.908h5.908  c0.645,0,1.169-0.523,1.169-1.169v-8.427C87.192,65.3,86.669,64.776,86.023,64.776z M84.854,73.203h-5.908  c-0.645,0-1.169,0.523-1.169,1.169v5.908h-6.089v-5.908c0-0.645-0.523-1.169-1.169-1.169h-5.908v-6.089h5.908  c0.645,0,1.169-0.523,1.169-1.169v-5.908h6.089v5.908c0,0.645,0.523,1.169,1.169,1.169h5.908V73.203z M74.733,51.891  c-4.363,0-8.373,1.538-11.518,4.1c-1.167-7.358-7.554-13.002-15.235-13.002h-2.115c-0.326,0-0.636,0.136-0.857,0.374L33.203,56.103  L21.4,43.364c-0.221-0.239-0.532-0.374-0.857-0.374h-2.115C9.921,42.99,3,49.911,3,58.418v30.027c0,0.645,0.523,1.169,1.169,1.169  h58.069c0.645,0,1.169-0.523,1.169-1.169V84.48c3.115,2.469,7.051,3.945,11.326,3.945C84.806,88.426,93,80.231,93,70.158  C93,60.086,84.806,51.891,74.733,51.891z M48.412,70.019h0.863c2.109,0.217,3.759,2.004,3.759,4.169c0,2.311-1.88,4.191-4.191,4.191  c-2.311,0-4.191-1.88-4.191-4.191C44.652,72.022,46.303,70.235,48.412,70.019z M5.338,87.276V58.418  c0-6.527,4.801-11.952,11.057-12.931v11.521c-5.148,0.583-9.162,4.962-9.162,10.263v12.278c0,0.645,0.523,1.169,1.169,1.169h3.828  c0.645,0,1.169-0.523,1.169-1.169c0-0.645-0.523-1.169-1.169-1.169H9.571V67.269c0-4.407,3.586-7.993,7.993-7.993  s7.993,3.586,7.993,7.993v11.109h-2.659c-0.645,0-1.169,0.523-1.169,1.169c0,0.645,0.523,1.169,1.169,1.169h3.828  c0.645,0,1.169-0.523,1.169-1.169V67.269c0-5.301-4.014-9.68-9.162-10.263V45.328h1.3l12.314,13.289  c0.221,0.239,0.532,0.374,0.857,0.374s0.636-0.136,0.857-0.374l12.314-13.289h1.3v22.438c-3.044,0.553-5.36,3.221-5.36,6.422  c0,3.6,2.929,6.529,6.529,6.529c3.6,0,6.529-2.929,6.529-6.529c0-3.201-2.316-5.869-5.36-6.422V45.486  c6.141,0.962,10.876,6.208,11.048,12.573c-2.857,3.225-4.594,7.463-4.594,12.099c0,4.642,1.741,8.884,4.603,12.11v5.008H5.338z   M74.733,86.088c-8.784,0-15.93-7.146-15.93-15.929c0-8.783,7.146-15.929,15.93-15.929c8.783,0,15.929,7.146,15.929,15.929  C90.662,78.942,83.517,86.088,74.733,86.088z"/>
</svg>