<svg xmlns="http://www.w3.org/2000/svg" xmlns:xlink="http://www.w3.org/1999/xlink" version="1.1" x="0px" y="0px" viewBox="0 0 67 83.75" enable-background="new 0 0 67 67" xml:space="preserve"><g><g><path d="M39.8199997,23.0125008c0,3.6999989-3.0099983,6.7099991-6.7099991,6.7099991s-6.7000008-3.0100002-6.7000008-6.7099991    s3-6.710001,6.7000008-6.710001S39.8199997,19.3125,39.8199997,23.0125008z"/></g><g><path d="M64.6699982,26.2950001L60.25,25.2350006c-0.5200005-1.6900005-1.1899986-3.3100014-2-4.8199997l2.3800011-3.8700008    c0.1800003-0.2999992,0.1299973-0.6800003-0.1100006-0.9200001l-9.1599998-9.1700001    c-0.2400017-0.2399998-0.6199989-0.29-0.920002-0.1100001l-3.8699989,2.3800006    C45.0400009,7.915,43.4300003,7.2449999,41.75,6.7350001l-1.0600014-4.4200001    C40.6100006,1.975,40.3100014,1.745,39.9599991,1.745H27c-0.3400002,0-0.6399994,0.23-0.7299995,0.5700001l-1.0500011,4.4200001    c-1.6499996,0.5099998-3.2600002,1.1700001-4.7999992,1.9900002l-3.8799992-2.3800006    C16.2399998,6.165,15.8599997,6.2150002,15.6199999,6.4549999L6.4499998,15.625    c-0.2399998,0.2399998-0.29,0.6299992-0.1099997,0.9200001l2.3899994,3.8700008    C7.9200001,21.9349995,7.2399998,23.5450001,6.73,25.2350006l-4.4099998,1.0599995C1.98,26.375,1.75,26.6749992,1.75,27.0249996    v12.9400005c0,0.3499985,0.23,0.6500015,0.5699999,0.7299995L6.73,41.7550011    c0.5099998,1.6899986,1.1900001,3.3099976,1.9999995,4.8199997l-2.3899994,3.8699989    C6.1599998,50.7449989,6.21,51.125,6.4499998,51.3650017l9.1700001,9.1599998    c0.2399998,0.2399979,0.6199999,0.2899971,0.920001,0.1099968l3.8699989-2.3799973    c1.5200005,0.8199997,3.1300011,1.4899979,4.8099995,2l1.0500011,4.420002    C26.3600006,65.0149994,26.6599998,65.2549973,27,65.2549973h12.9599991c0.3500023,0,0.6500015-0.2399979,0.7299995-0.5799942    L41.75,60.2550011c1.6899986-0.5100021,3.3100014-1.1900024,4.8199997-2l3.8699989,2.3799973    c0.3000031,0.1800003,0.6800003,0.1300011,0.920002-0.1099968l9.1599998-9.1599998    c0.2399979-0.2400017,0.2900009-0.6200027,0.1100006-0.920002L58.25,46.5750008    c0.8100014-1.5100021,1.4799995-3.1300011,2-4.8199997l4.4199982-1.0600014    C65.0100021,40.6150017,65.25,40.3149986,65.25,39.9650002V27.0249996C65.25,26.6749992,65.0100021,26.375,64.6699982,26.2950001z     M33.5,54.4150009c-11.5599995,0-20.9200001-9.3700027-20.9200001-20.920002S21.9400005,12.5749998,33.5,12.5749998    c12.8699989,0,20.9099998,11.0299997,20.9099998,20.9199982C54.4099998,45.0449982,45.0499992,54.4150009,33.5,54.4150009z"/></g><path d="M34.4613914,32.8933983h-1.9321022l-0.5658989-1.022398h3.0639L34.4613914,32.8933983z M32.7035904,34.3933983h1.5834999   l1.2020988,6.0733032l-1.9940987,2.133297l-1.9937-2.133297L32.7035904,34.3933983z M20.6273899,37.9369011   c0-3.3482018,2.7237015-6.0723019,6.0718002-6.0723019h3.5459995l1.0531006,1.9022007l-1.3432007,6.7858009   c-0.0468998,0.2367973,0.0229111,0.4813995,0.1879101,0.6576996l2.8041897,3   c0.0751991,0.0806007,0.1676025,0.1391983,0.2678108,0.1796989H20.6273899V37.9369011z M33.7751884,44.3899994   c0.1001015-0.0405006,0.1926003-0.0990982,0.2677002-0.1796989l2.8047028-3   c0.1651001-0.1763,0.2348976-0.4209023,0.1879997-0.6576996l-1.3432007-6.7858009l1.0531006-1.9022007h3.2192993   c3.2232094,0,5.8862991,2.5210018,6.0615005,5.7021999l0.0367088,6.8232002H33.7751884z"/></g>
</svg>