<svg xmlns="http://www.w3.org/2000/svg" viewBox="0 0 512 640" x="0px" y="0px"><path d="M256,394.83a7.5,7.5,0,1,0,7.5,7.5A7.5,7.5,0,0,0,256,394.83Zm179.39-92.06a102.89,102.89,0,0,0-52.52-37.48l-66.82-20.88a71,71,0,0,0,10.81-31.64l2.33-25.87a7.88,7.88,0,0,0,1.2.1,28.5,28.5,0,0,0,4-56.71L342.3,71a22.52,22.52,0,1,0-18.62-9.45,39.85,39.85,0,0,1-57.4-19,22.5,22.5,0,1,0-20.58,0A40.08,40.08,0,0,1,237.55,55a39.64,39.64,0,0,1-49.25,6.55A22.49,22.49,0,1,0,169.7,71l7.91,59.3a28.5,28.5,0,0,0,4,56.71,7.88,7.88,0,0,0,1.2-.1l2.33,25.87A71,71,0,0,0,196,244.41l-66.82,20.88A103.49,103.49,0,0,0,56.5,364.08V504.5A7.5,7.5,0,0,0,64,512H448a7.5,7.5,0,0,0,7.5-7.5V364.08A102.88,102.88,0,0,0,435.39,302.77ZM342,41a7.5,7.5,0,1,1-7.5,7.5A7.5,7.5,0,0,1,342,41Zm-9.06,104.25A13.49,13.49,0,0,1,330.53,172ZM170,56a7.5,7.5,0,1,1,7.5-7.5A7.5,7.5,0,0,1,170,56Zm-1.89,102.5a13.52,13.52,0,0,1,10.95-13.25L181.47,172A13.51,13.51,0,0,1,168.11,158.5ZM256,15a7.5,7.5,0,1,1-7.5,7.5A7.5,7.5,0,0,1,256,15ZM185.65,77.1a54.66,54.66,0,0,0,23.15,5.13l1.88,0a54.6,54.6,0,0,0,37.68-16.79,55.56,55.56,0,0,0,7.6-10,54.52,54.52,0,0,0,47.09,26.84q2.43,0,4.89-.21a54.75,54.75,0,0,0,18.42-4.93L319.43,129H192.57ZM194,144H318l-3.9,43.3-14.31,8.08a7.52,7.52,0,0,1-7.46-.06l-13.12-7.65a22.79,22.79,0,0,0-11.29-3h-24a22.52,22.52,0,0,0-11.39,3.1l-12.91,7.59a7.55,7.55,0,0,1-7.46.08l-14.21-7.87Zm62,125.12L231,256.64a56.5,56.5,0,0,1-30.87-45.21l-.52-5.82,5.3,2.94a22.58,22.58,0,0,0,22.33-.25l12.93-7.6a7.48,7.48,0,0,1,3.78-1h24a7.84,7.84,0,0,1,3.75,1l13.07,7.63a22.57,22.57,0,0,0,22.38.16l5.32-3-.54,6a56.5,56.5,0,0,1-30.87,45.21h0Zm10.36,46.38A10.53,10.53,0,1,1,255.83,305,10.54,10.54,0,0,1,266.36,315.5ZM218.5,497h-75V433.5a7.5,7.5,0,0,0-15,0V497h-57V364.08a89.41,89.41,0,0,1,1.56-16.61L198.31,357l.57,0a64.48,64.48,0,0,0,19.62-3.07Zm2.56-160.25A49.65,49.65,0,0,1,199.15,342l-122-9.26a88.1,88.1,0,0,1,56.44-53.13L206,257a70.6,70.6,0,0,0,18.22,13.09l24.24,12.08v8.91a25.51,25.51,0,0,0-15,36.85,49.7,49.7,0,0,1-9.55,7.27A7.38,7.38,0,0,0,221.06,336.75ZM278.5,497h-45V346.92a64.47,64.47,0,0,0,10.85-8.63,25.43,25.43,0,0,0,23.18-.11,65.22,65.22,0,0,0,11,8.78ZM288,335.15a49.45,49.45,0,0,1-9.7-7.46,25.53,25.53,0,0,0-14.76-36.54v-9l24.24-12.08h0A70.48,70.48,0,0,0,306,257l72.43,22.64a88.1,88.1,0,0,1,56.44,53.13l-122,9.26A49.52,49.52,0,0,1,291,336.81,7.51,7.51,0,0,0,288,335.15ZM440.5,497h-57V433.5a7.5,7.5,0,0,0-15,0V497h-75V354A64.7,64.7,0,0,0,313.12,357l.57,0,125.25-9.51a89.41,89.41,0,0,1,1.56,16.61ZM256,363.83a7.5,7.5,0,1,0,7.5,7.5A7.5,7.5,0,0,0,256,363.83Zm0,93a7.5,7.5,0,1,0,7.5,7.5A7.5,7.5,0,0,0,256,456.83Zm5.2-242.47a16.84,16.84,0,0,1-5.13.82,16.51,16.51,0,0,1-5.25-.81,7.5,7.5,0,0,0-4.64,14.26,31.58,31.58,0,0,0,9.77,1.55h.21a31.87,31.87,0,0,0,9.64-1.54,7.5,7.5,0,1,0-4.6-14.28Zm25.3-46.53a7.5,7.5,0,1,0-7.5-7.5A7.5,7.5,0,0,0,286.5,167.83Zm-61,0a7.5,7.5,0,1,0-7.5-7.5A7.5,7.5,0,0,0,225.5,167.83Zm30.5,258a7.5,7.5,0,1,0,7.5,7.5A7.5,7.5,0,0,0,256,425.83Z"/>
</svg>